<svg fill="none" viewBox="0 0 133.13 46" xmlns="http://www.w3.org/2000/svg"><g clip-rule="evenodd" fill-rule="evenodd"><path d="M115.53 18.036c1.916-6.082 5.961-9.647 11.567-12.164a21.115 21.115 0 013.548-1.188c-4.329-1.888-8.729-2.237-12.561-.56-2.271.98-4.187 2.657-5.606 4.754 1.348 2.727 2.413 5.873 3.052 9.158z" fill="#046a38"/><path d="M113.26 35.164c9.154.07 16.818 2.727 19.941 5.872-4.613-2.446-12.49-4.054-20.296-4.054.071-.63.213-1.259.355-1.818zM111.41 36.982c-7.309.21-14.548 1.748-18.876 4.055 2.98-3.006 10.289-5.663 19.018-5.873-.071.63-.071 1.189-.142 1.818z" fill="#64a70b"/><path d="M112.83 36.982c-.923 3.356-2.2 6.432-3.761 9.018 1.135-2.796 1.916-5.802 2.342-9.018h1.419zM113.26 35.164H111.557c0-.49.071-.979.071-1.398.567-15.8-8.729-28.942-20.793-29.362-1.136-.07-2.271.07-3.335.21C90.409 1.607 93.957-.14 97.647 0c9.581.35 16.961 12.863 16.393 27.963a46.743 46.743 0 01-.78 7.2z" fill="#046a38"/></g><g clip-rule="evenodd" fill="#046a38" fill-rule="evenodd"><path d="M14.051 25.027c-1.135 2.097-3.122 3.286-5.89 3.286-4.258 0-6.458-2.377-6.458-5.523 0-3.915 2.271-6.082 6.316-6.082 2.697 0 4.897.979 5.89 3.216l1.49-.7c-1.277-2.796-4.328-3.984-7.38-3.984C3.264 15.24 0 17.826 0 22.58c0 3.985 2.555 7.2 8.019 7.2 3.406 0 6.032-1.118 7.522-4.054zM17.528 29.432h1.561V23.49c.071-.28 1.632-2.797 3.903-2.797.71 0 1.065.14 1.278.14v-1.538c-.284-.07-.568-.07-.923-.07-2.058 0-3.335 1.398-4.187 2.377v-2.097H17.6v9.927zM30.302 29.781c3.477 0 5.819-1.958 5.819-5.453 0-2.866-2.27-5.103-5.819-5.103-3.548 0-5.82 2.237-5.82 5.103 0 3.495 2.343 5.453 5.82 5.453zm0-1.328c-2.626 0-4.258-1.608-4.258-3.985 0-1.818 1.206-3.985 4.258-3.985 3.051 0 4.258 2.167 4.258 3.985 0 2.377-1.632 3.985-4.258 3.985zM39.314 22.65c.994-1.049 2.697-2.097 4.4-2.097 2.767 0 4.4 1.817 4.4 3.845 0 3.006-2.271 4.124-4.33 4.124-2.2 0-3.477-.978-4.399-1.957V22.65zm-1.561 10.346h1.561v-4.894c1.42.98 2.413 1.678 4.542 1.678 4.329 0 5.819-3.076 5.819-5.383 0-2.237-1.632-5.173-5.535-5.173-2.342 0-3.336.63-4.826 1.818v-1.538h-1.561z"/></g><g clip-rule="evenodd" fill="#64a70b" fill-rule="evenodd"><path d="M52.088 29.432h12.774v-1.468h-11.07V15.59h-1.703zM66.85 29.432h1.561v-9.927H66.85zm-.142-12.024h1.774V15.66h-1.774zM72.738 29.432h1.561v-8.39h4.187v-1.327h-4.187v-.63c0-1.468.355-2.446 2.484-2.446.78 0 1.49.14 2.2.35V15.59c-.426-.07-.994-.28-2.626-.28-3.051 0-3.619 2.028-3.619 3.706v.769h-2.555v1.328h2.555zM88.99 26.495c-.639.769-1.49 1.958-4.116 1.958s-4.187-1.818-4.329-3.636h9.935c.071-3.915-2.767-5.593-5.961-5.593-3.122 0-5.535 2.098-5.535 5.244 0 3.076 2.342 5.313 5.748 5.313 3.477 0 4.471-1.328 5.464-2.377zm-8.374-3.006c.426-1.818 1.774-3.006 4.045-3.006 2.413 0 3.832 1.328 4.116 3.006z"/></g><g fill="#046a38"><path d="M56.062 34.325c.213 0 .497.07.639.21.213.21.213.42.213.629v.49c0 .14 0 .349-.213.489-.142.07-.355.21-.568.21.213 0 .426.14.568.21.142.139.213.279.213.628v.56c0 .21-.071.489-.355.629-.213.14-.497.21-.994.21h-3.548v-4.335h4.045zm-2.91.7v1.048h2.413c.071 0 .213 0 .213-.07.071-.07.071-.14.071-.21v-.42c0-.07 0-.21-.142-.279-.07-.07-.213-.07-.284-.07zm0 1.747v1.118h2.271c.071 0 .284 0 .426-.07.071-.07.071-.21.071-.28v-.349c0-.07 0-.21-.07-.28-.072-.14-.285-.07-.427-.07h-2.27zM63.583 34.325c.213 0 .497 0 .71.21.283.14.283.42.283.629v1.049c0 .35-.141.559-.212.629-.213.21-.568.21-.781.21h-.568l2.058 1.607h-1.49l-1.774-1.608h-.994v1.608h-.993v-4.334zm-2.768.7v1.188h2.342c.071 0 .213 0 .284-.07.142-.07.142-.21.142-.28v-.56c0-.07 0-.209-.142-.279-.07-.07-.284-.07-.284-.07h-2.342zM69.828 34.325l2.555 4.334h-1.135l-.497-.908h-2.768l-.567.908h-1.065l2.484-4.334zm.426 2.587l-.922-1.748-.994 1.748zM75.576 35.094v.909h2.768c.284 0 .638 0 .851.21.142.14.213.419.213.699v.839c0 .28-.071.559-.213.699-.213.21-.567.21-.709.21h-2.91c-.213 0-.568 0-.781-.21-.212-.21-.212-.63-.212-.84v-.07l.922-.209v.49h3.123v-1.05h-2.839c-.142 0-.568 0-.781-.209s-.213-.63-.213-.839v-.49c0-.209 0-.628.213-.838.213-.21.568-.21.781-.21h2.626c.213 0 .638 0 .78.21.213.21.213.56.213.699v.14l-.922.21v-.49h-2.91zM83.384 38.66h-.994v-4.334h.994zM87.5 37.821h3.264v.769h-4.329v-4.334h.994v3.565z"/></g></svg>